<svg version="1" xmlns="http://www.w3.org/2000/svg" width="1172" height="1172" viewBox="0 0 879.000000 879.000000"><path d="M280.1 54c-79.6 31.9-148.5 88.1-196.8 160.5-38.2 57.4-61.9 123.4-69.3 193-3.1 29.3-2.3 71.9 2.1 103.5 22.3 161.4 137 297.4 292.7 347.4 43.5 13.9 82.8 19.9 130.7 19.9 49.5 0 88.9-6.2 134.5-21.2 127.2-42 227.5-141.5 270.6-268.5 9.5-27.8 15.9-56.7 20.1-89.6 2.5-19.8 2.5-75.8 0-96-6.3-50.1-18.7-93.5-39.1-136.3-28.2-59.3-73-114.8-124.2-153.8-13-9.9-13.2-10-8.4-3.7 5.6 7.2 11.6 19.8 14 29.4 1.1 4.3 2.7 14.9 3.5 23.4 3.8 40.7 7.1 110.1 6 127.1-.6 10.5-.6 10.7 2.4 16.7 1.7 3.4 3.1 6.6 3.1 7.2 0 .5-2.2 3.7-4.8 7-2.8 3.4-5.5 8.2-6.5 11.2-.9 3-3.3 8-5.3 11.3-2 3.3-5.6 10.7-8.1 16.5-5.5 12.8-9.9 21.5-15.8 31.5-2.5 4.2-4.5 7.9-4.5 8.2 0 1.2 10.7-.9 15-2.9 2.8-1.4 9-6.7 16.5-14.2 12-12.2 20.6-18.3 28.8-20.8 3.2-1 4-.9 4.7.3 2.2 3.5 8.7 35.6 10.4 51.1l.6 5.7-4.7.5c-12.2 1.5-17.1 2.8-25.1 6.7-7.9 3.7-10 5.4-21.8 17.4-15 15.3-16.5 16.1-34 17.2l-10.1.6-.6-4.8c-.4-2.6-.7-10.8-.7-18.1 0-7.4-.4-13.4-.8-13.4-3.2 0-19.3 13.9-41.7 36-31.9 31.4-53.3 49.9-94.7 81.8-64.9 49.9-119.7 81.6-155 89.8l-7.8 1.8-1.6 7.4c-1.3 6.1-1.6 10.9-1.1 26.1 1 36.4 7 54.8 19.8 61.4 8.5 4.4 18.4 5.6 44.4 5.7 33.1 0 56.5-3.2 70-9.6 15.7-7.4 38.5-29.3 73.8-70.9 20.8-24.4 31.2-35.2 46.7-48.2 24.2-20.3 55.8-38.9 81.2-47.6 1.4-.5 1-1.8-3.3-8.9-4.8-8.1-13.2-26.2-14.4-31.1-.6-2.3-.3-2.5 3.7-3.1 8.4-1.3 12.9-5.1 23.8-20.2 4.4-6.1 10.3-10.6 17.7-13.5 4.8-1.8 8.4-2.3 21.2-2.7l15.3-.4-.6 3.8c-.3 2.2-1 7.7-1.6 12.4-1.3 10.1-6.5 36.7-8.4 43l-1.3 4.5-8.2.7c-9.3.8-14 2.1-19.1 5.3-3.7 2.4-9.6 8.2-8.9 8.8.2.2 4.5 2 9.4 4 5 1.9 11.1 4.5 13.7 5.7l4.8 2.1-2.4 6.2c-1.3 3.4-4 9.6-5.9 13.8-3.4 7.3-3.8 7.8-12.4 13.5-15.3 10.1-51.1 46.8-92.8 94.9-8.1 9.3-16.8 19.6-19.4 22.9-4.1 5.2-5.9 6.5-17.3 12.2-36 18-74 29.3-112.8 33.4-15.8 1.7-50.1 1.5-66.5-.5-25.3-3-52-9.4-75.5-18.2-14.3-5.4-23.7-9.9-24.8-12-1.4-2.7-3.1-16.9-3.8-31.8-1-20.5 1.8-39.1 9.1-60.4 3-9 3-9.1.4-9.1s-4.2 3.9-8 18.6c-5.7 22.9-7 41.7-4.6 67.6.7 7.1 1.1 12.8.9 12.8-2.4 0-30.2-16.2-30.2-17.6 0-2 7.6-29.5 10.8-38.9 2-6.1 7.3-18.3 11.8-27.3 6.7-13.3 7.9-16.4 6.7-16.9-2.2-.9-3.2.7-12.3 21-8.2 18.1-13.6 33.1-18.1 50.5-1.8 7.1-2.7 9.1-3.8 8.7-4.4-1.7-26-18.6-38.2-29.9l-6.3-5.8 1.3-6.2c.7-3.3 2.5-8.6 3.9-11.6 2.3-4.7 3.9-6.3 11.2-11.1 4.7-3.1 14.9-9.1 22.8-13.2 12.3-6.4 14-7.5 11.8-8.1-1.6-.4-3.6.1-5.9 1.4-8.2 4.8-20.8 6.7-52.2 7.5-9.3.2-18.7.9-20.8 1.5-2.9.9-4.2.8-5.3-.1-4.7-3.9-30.4-49.3-28.8-50.9 1-1 33-17.4 35.4-18.2 1.2-.4.6-2.2-2.7-9.4-7.1-15.4-7.7-17.9-7-32.2.3-7 1.3-16.8 2.1-21.7 1.5-8.4 1.4-9.1-.2-10.3-1.7-1.3-1.3-1.9 1.9-3.4.3-.2 2.2-7.4 4.3-16l3.8-15.8-1.8-13.1c-2-14.6-1.3-14.1-7.4-6.1l-2 2.7.6-7.2.7-7.1-3.7-2.4c-1.9-1.2-3.6-2.6-3.6-2.9 0-.3 2.2-2 4.8-3.6l4.9-3 .6-6.9c.7-7.7-.3-45.4-1.2-45.4-.3.1-2.3 2.3-4.5 5.1-2.1 2.8-4 4.8-4.3 4.5-.2-.2 0-2.1.6-4.3 1.7-6.1 1.4-7.6-2.4-10.2-1.9-1.3-3.5-2.7-3.5-3.1 0-.4 2-1.8 4.5-3.1 4.7-2.5 5-3.1 7.1-12.9l.7-3.5 1.3 3 1.2 3 .6-3.5c.3-1.9.8-10.3 1.1-18.5.4-8.3.7-15.8.8-16.9.1-1.3-1.2-2.4-5.1-4.1l-5.2-2.4-4 6c-2.3 3.2-4.2 5.9-4.4 5.9-.1 0 .1-3.2.6-7.1.7-5.6.6-7.5-.5-8.8-1.2-1.4-.8-2.5 3.4-9l4.8-7.4 1.2 2.6c1.3 3 2.2 2.9 8.9-.2 3.5-1.6 3.5-1.6 5.6-13.7 7.2-40.4 20.1-79.3 38-114.4 6.4-12.7 7.7-16.2 9.9-26.5 3.5-17 7-27.4 10.6-32.6 9.6-13.3 25-28.7 40.5-40.4 3.2-2.4.4-1.6-12.5 3.5zM102.5 318.6c-.7 2.5-1.6 4.8-1.8 5.1-.3.2-7.7 0-16.4-.5s-15.9-.9-16-.8c-.1.1 6.4 3.9 14.3 8.5 9.5 5.4 14.3 8.8 14 9.7-.3.7-.8 2.9-1.2 4.9l-.7 3.7-16.9-.4-16.9-.4 14.8 7.6 14.9 7.5-1.5 6.8-1.4 6.8-3.6-.5c-13-1.9-12.8-2-13.4.6-.3 1.2-.9 5.3-1.2 8.9l-.7 6.6 5.8.7c10.2 1.3 10.4 1.4 10.4 5.6 0 2.2-.5 4.2-1 4.5-.6.4-10.3-.6-21.6-2.1l-20.6-2.8.6-2.9c.3-1.6.6-3.8.6-4.9 0-1.4.5-1.8 1.8-1.4.9.3 4.9.8 8.8 1.2l7.1.6 1.1-8.3c.7-4.5.9-8.5.6-8.8-.3-.3-4-1.1-8.2-1.6l-7.7-1 .1-4.3c0-2.3.3-4.4.5-4.7.3-.2 6.7.5 14.4 1.5 7.6 1.1 14 1.8 14.2 1.6.2-.2-5.5-3.6-12.7-7.6-7.1-4-13-7.6-13-7.9 0-.3.6-2.6 1.4-5.1l1.3-4.5 16.2.1 16.1.1-14.1-8c-13.2-7.4-14-8-13.4-10.4.3-1.4.9-3.8 1.2-5.4l.6-2.9h44.6l-1.4 4.6zm57.4 6.1c-1.2 2.1-3.1 5.1-4.2 6.6-2.1 3.1-2.2 2.5 2.8 15 .6 1.5-.1 1.4-5-1l-5.7-2.8-1.9 2.3c-1 1.3-2.7 3.6-3.8 5-1.6 2.2-1.5 1.3.9-5.3 5.9-16.9 6.9-18.5 13-21 3-1.3 5.6-2.4 5.8-2.4.2-.1-.7 1.6-1.9 3.6zm666.5 27.4c.4 2.3.5 4.4.2 4.6-.3.3-3.6 1.2-7.3 1.9-3.7.8-7.3 1.6-7.9 1.8-.8.3-.7 2.7.5 8.4.9 4.4 1.9 8.3 2.2 8.6.3.4 4.1-.1 8.3-1 4.3-.9 8-1.3 8.3-1.1.6.6 2.3 8 1.9 8.4-.3.3-39.2 8.3-40.5 8.3-1 0-1.4-1-2.5-6.1-.6-2.6-.4-2.7 7.6-4.3 4.5-.9 8.2-1.7 8.4-1.8.4-.4-3-16.6-3.6-17.2-.3-.3-3.3.1-6.5.9-9.6 2.3-10.2 2.1-11-2.6-.4-2.2-.5-4.2-.3-4.4.4-.4 37.7-8.3 39.9-8.4 1.2-.1 1.8 1.1 2.3 4zm-671 39.2c.5 1.6.9 1.6 5.5-.8 2.8-1.4 5.2-2.5 5.5-2.5.2 0-1 3.1-2.6 6.9l-3.1 7 2.2 5.7c1.2 3.1 2 5.9 1.8 6.1-.3.2-2.7-.5-5.5-1.6l-5.1-2-3.9 5.5-3.9 5.4.4-7.7.4-7.8-4.2-3-4.3-2.9 5.1-2.2c4.8-2.2 5.1-2.5 6.3-7.6.7-2.9 1.5-5.7 1.8-6.2.4-.8 1.7 1.9 3.6 7.7zm679.1 12.9c2 6.8 1.9 12.4-.4 17.3-6.7 14.7-28.9 16.5-38.3 3-3.1-4.4-4.9-12.5-4.1-18.6.5-3.5.7-3.7 4.7-4.1l4.1-.3-.3 7.1c-.4 6.4-.2 7.3 2.3 10.2 5.2 6.1 14.6 6.7 20.9 1.1 4.9-4.2 5.3-8 2.1-18.7-.7-2-.4-2.2 3.3-2.2 4.1 0 4.1 0 5.7 5.2zM83 430.5V443h-8v-15H65v14h-7v-14h-4.9c-4.8 0-4.8 0-5.5 3.7-.3 2.1-.6 5.7-.6 8 0 4.2-.1 4.3-3.5 4.3H40v-26h43v12.5zm50.4 11.2l-3.6 5.7 1.7 5.6c1 3 2 6.1 2.3 6.8.3.8-1.2.5-4.2-1l-4.6-2.2v-18.5l4.3-.9c8.1-1.9 8.1-1.8 4.1 4.5zm694.9 3.2l7.7.1v9.9l-15.7 9.3-15.8 9.3 13 .6c7.2.4 14 .7 15.3.8 2.1.1 2.3.5 2 4.3l-.3 4.3-4.5-.2c-2.5-.1-12.1-.5-21.3-.9l-16.8-.6.3-5.1.3-5.1 10.5-6.3c5.8-3.4 12.5-7.5 15-9l4.5-2.8-14.2-.5c-7.8-.3-14.5-.8-14.8-1.2-.3-.3-.3-2.3.1-4.4l.6-3.9 13.1.6c7.3.4 16.7.7 21 .8zm-665.8 16.9c.2.2 2.6-.8 5.4-2.2 2.8-1.5 5.1-2.4 5.1-2.1 0 .2-1.5 3.4-3.2 7l-3.3 6.6 2.3 6.2c1.2 3.4 2.2 6.5 2.2 7 0 .4-2.2-.4-5-1.8l-4.9-2.5-4.1 6c-2.2 3.3-4.2 6-4.4 6-.1 0 .3-3.6.9-8.1l1.2-8-4.4-3c-2.3-1.7-4.3-3.3-4.3-3.7 0-.5 2.2-1.7 4.9-2.9 4.6-1.9 4.9-2.2 5.5-6.9 1.5-10.2 1.8-10.5 3.9-3.9 1.1 3.3 2.1 6.1 2.2 6.3zm-80.1-4.6c1.7 6.6 1.2 7.3-12.3 18.5-7.2 5.9-12.8 10.9-12.6 11.1.1.2 6.4-.4 13.9-1.2 7.4-.9 13.8-1.6 14.1-1.6.3 0 .5 2 .5 4.5 0 3.6-.3 4.5-1.7 4.5-1 .1-10.5 1.1-21 2.4-13 1.5-19.3 1.9-19.3 1.2 0-.6-.3-2.7-.6-4.7-.6-3.6-.6-3.6 13-14.9 7.5-6.2 13.5-11.5 13.2-11.7-.2-.2-6.5.4-14.1 1.3-15.2 1.8-15.5 1.8-15.5-4.2v-3.1l17.8-2c24.1-2.8 23.8-2.8 24.6-.1zM806.9 492c12.9 2.2 17.6 4.2 20.9 9.1 2.1 2.9 2.3 4.3 1.9 9.9-.8 11.8-5.6 17-15.7 17-3 0-10.7-.9-17-2-6.3-1.1-11.9-2-12.3-2-.9 0 .2-7.1 1.3-8.3.4-.5 7.2.2 15 1.4 12.8 2.1 14.4 2.2 16.8.8 5-2.8 5.5-10.3.9-13.3-1.2-.8-8.2-2.5-15.5-3.7-8.6-1.4-13.6-2.7-13.9-3.6-.3-.7-.2-2.9.1-4.9.7-3.2 1-3.5 3.4-2.9 1.5.3 7.8 1.4 14.1 2.5zm-667.7 20.7l-3.9 5.8 2.3 6.7c2.4 7.1 2.2 7.8-1.3 5.3-1.6-1.1-2.7-4-4.3-11.1-1.2-5.2-2-9.7-1.8-9.8.5-.4 9.1-2.3 11.1-2.5 1.4-.1 1 1-2.1 5.6zm27.3 15.5c.8 4.4 1.6 4.6 8 1.8 2.5-1.1 4.4-1.6 4.2-1.2-.2.4-2 3.5-4.1 6.9l-3.7 6.2 1.7 5.8c.9 3.2 1.9 6.4 2.2 7.1.3.9-1.4.4-4.6-1.2-2.8-1.4-5.6-2.6-6.1-2.6-.6 0-2.2 2-3.7 4.5-1.4 2.5-2.8 4.5-3 4.5-.3 0-.1-3 .2-6.7l.7-6.6-3.4-2.8-3.3-2.7 4.7-2.3c4.6-2.2 4.7-2.4 6.3-9.7 1.7-7.8 2.7-8 3.9-1zm656.1 15.3c-1.8 7-2.2 7.5-7.5 7.5h-4.9l-2.1 6.9c-1.2 3.8-2.1 7.3-2.1 7.8 0 .4 1.8 1.9 4 3.3 3.3 2.1 3.8 2.8 3.3 5-1.3 5.3-2.3 7.1-3.5 6.4-1.4-.9-32.8-24.2-34.2-25.4-.4-.5-.1-3.3.8-6.3l1.6-5.4 20.7-1c11.5-.5 21.6-1 22.7-1.1 1.5-.2 1.7.3 1.2 2.3zm-719.2 16.6c.9 2.3 1.6 4.3 1.4 4.4-.2.2-9.2 3.7-20 7.8l-19.7 7.5-1.5-4.5c-1.1-3.3-1.2-4.5-.3-4.9.7-.2 9.3-3.5 19.2-7.3 9.9-3.8 18.3-7 18.6-7 .4-.1 1.4 1.8 2.3 4zM802 592.5c3.4 1.7 3.5.8-2.9 15-2.4 5.3-4.6 8.9-5.3 8.7-.7-.1-9.5-3.9-19.5-8.3l-18.2-8.1 1.4-3.5c.8-2 1.5-3.7 1.5-3.9 0-1.2 4.1.2 15.8 5.5 18.6 8.4 16.6 8.4 20.3.2 1.7-3.9 3.4-7.1 3.6-7.1.2 0 1.7.7 3.3 1.5zm-686 1.7c3.3 2.3 8.3 10.1 9.5 14.9.5 2.2.1 2.9-2.7 4.7l-3.3 2.1-1.2-4.5c-1.4-5.6-3.6-9.1-6.3-9.9-3.9-1.2-5 1.1-5 10.2 0 9.6-1.5 13.5-6 15.8-6.2 3.2-12.4 1.3-17.1-5.3-2.7-3.9-5.9-11.3-5.9-13.6 0-1.2 6-5.6 7.6-5.6.2 0 .4 2 .4 4.4 0 4.5 2.8 9.9 6.3 12 1.5.9 2.2.6 3.9-1.4 1.7-2.2 1.9-3.4 1.4-8.7-.8-7.3.7-11.8 4.9-15.1 3.7-2.9 9.2-2.9 13.5 0zm594.5 20c-21.5 35.3-55.3 71-89 94-6.1 4.1-12.3 8.4-14 9.4-3 1.8-3 1.8-1.5-.1 11.1-14.4 60.5-68.9 78.6-86.6 10.4-10.2 30.4-27.2 31.1-26.5.3.2-2.1 4.6-5.2 9.8zm19 47.6c2.1 5.6 4.1 10.5 4.6 10.7.4.3 5.8 1.2 11.9 1.9 6.1.8 11.4 1.6 11.7 1.9.3.3-.9 2.3-2.7 4.5l-3.1 3.9-7.7-1.4c-4.2-.7-8.3-1.6-9.1-1.8-1.5-.6-1.6-.9 2.9 9.2l3.3 7.2-3.4 4.5-3.4 4.4-4.1-11.6c-2.9-8-4.7-11.8-6-12.2-1-.4-6.5-1.3-12.1-2-5.7-.7-10.3-1.5-10.3-1.7 0-1.4 6.6-8.3 7.9-8.3.9 0 4.9.9 8.9 1.9 3.9 1 7.2 1.7 7.2 1.6 0-.1-1.3-2.8-2.9-6.1-4.5-9.4-4.6-9.9-1.4-14.3 1.5-2.2 3.1-3.7 3.4-3.3.3.4 2.3 5.3 4.4 11zm-559.1 11.9c5.8 6.5 10.6 12.2 10.7 12.8.1.5-1 1.9-2.5 2.9l-2.5 1.9-4-4.4-3.9-4.4-2.4 2.1c-1.2 1.1-7.1 6.4-12.9 11.7l-10.6 9.6-3.3-3.4c-1.9-1.9-3.2-3.6-2.9-3.8 4.6-4 24.5-22.3 24.7-22.9.2-.5-1.3-2.7-3.3-4.9l-3.7-4.1 2.3-2.4c1.2-1.3 2.6-2.4 3-2.4.4 0 5.5 5.3 11.3 11.7zm522.4 25l-5.2 5.3 3.4 3.5 3.4 3.5 4.8-4.7 4.8-4.7 2.5 2.4 2.5 2.4-4.7 4.8-4.7 4.8 2 2.7c4 5.3 4.9 5.3 10.9-.7l5.5-5.4 2.5 2.5 2.5 2.4-9 9-9 9-11.6-11.5c-6.3-6.3-12.9-13.2-14.6-15.3l-3.1-3.9 8.4-8.4 8.3-8.4 2.8 2.7 2.8 2.7-5.2 5.3zm-498.8.4c0 .3-2.2 3-5 6.1-2.7 3.1-5 6-5 6.6 0 1 11.4 11.2 12.6 11.2.5 0 3.3-2.7 6.4-6l5.5-6 3.3 3 3.3 3.1-12.2 14.2c-17.6 20.5-15.3 18.6-18.9 15.2-1.6-1.6-3-3.2-3-3.6 0-.4 2.3-3.4 5-6.5 2.8-3.1 5-6 5-6.4 0-.9-11.6-11-12.7-11-.4 0-3.3 2.7-6.4 6.1l-5.5 6.2-3.4-3-3.4-3 2-2.4c1-1.4 7.2-8.6 13.7-16.2l11.9-13.7 3.4 2.8c1.9 1.5 3.4 2.9 3.4 3.3zm471.8 21.2l2.2 3.2-3.2 1c-1.8.5-4.9 2.6-7 4.7-3.3 3.3-3.8 4.4-3.8 8.6 0 8.2 6.5 15.2 14.1 15.2 4.2 0 9.3-3.2 12-7.6l2.2-3.6 2.3 2.9c1.3 1.5 2.3 3.5 2.4 4.2 0 2.7-9.8 10.9-15.1 12.6-8.3 2.8-15.1.6-21.3-6.7-6.3-7.3-7.9-17.3-4-24.8 2.3-4.6 12.3-13 15.4-13 .8 0 2.5 1.5 3.8 3.3zm-426.7 14.1l7.7 5.1-2.2 3.1-2.1 3.1-5.5-3.8c-3-2.1-5.9-3.8-6.5-3.8-.9-.1-5.5 6.1-5.5 7.4 0 .3 2.5 2.1 5.5 4.1 3 2 5.5 3.9 5.5 4.1 0 1-3.4 5.3-4.2 5.3-.5 0-2.8-1.3-5.1-2.8-2.3-1.6-4.7-3.2-5.3-3.5-1-.6-7.1 7-6.2 7.7.2.2 3.1 2.2 6.6 4.5l6.2 4.2-1.7 3c-.9 1.6-2.1 2.9-2.6 2.9-.7 0-18.1-11.3-20-13-.5-.4 4.4-8.7 10.9-18.4l11.7-17.6 2.6 1.7c1.4.9 6 3.9 10.2 6.7zm395.2 26.3c9 7.6 16.5 14.2 16.7 14.8.2.5-1.4 2-3.5 3.2l-3.9 2.1-3.5-2.9c-2-1.6-4-2.9-4.4-2.9-.5 0-3.6 1.6-6.9 3.6-5.8 3.6-6 3.7-5.3 7.1.3 1.9.8 4 1.1 4.8.3.8-1.2 2.3-3.7 3.9-2.4 1.4-4.4 2.4-4.6 2.2-.2-.1-2.1-10.1-4.3-22.1-3.3-17.5-3.9-22-2.8-22.6.7-.5 2.7-1.7 4.3-2.8 1.7-1.1 3.3-2 3.7-2 .4-.1 8 6.1 17.1 13.6zm-43.7 8.4c3.8 3.5 5.8 10 4.5 14.1-1.4 4.2-6.4 9.2-11.3 11.2l-3.7 1.6 2.9 6.7 2.9 6.8-2.2 1.1c-6.3 3.3-5.7 4-14.6-16.3-4.4-10.4-8.1-19.2-8.1-19.6 0-.8 5.8-3.5 14.5-6.8 6.1-2.4 11.8-1.9 15.1 1.2zm-287.6.2c2.1 1.1 2.9 3.1 6.6 18.1l4.1 16.8 4-11.3c2.2-6.3 4.4-12.4 4.7-13.7.8-2.4 2.8-2.7 6.8-.9l2.6 1.2-6.8 19.3c-3.8 10.7-7.1 19.6-7.3 19.9-.3.2-2.4-.1-4.6-.8-4.6-1.4-3.8.5-9.1-20.9-4-16.4-4-16.3-5.6-11.5-.8 2.2-3 8.6-5 14.2l-3.6 10.2-3.6-1.5c-2-.8-3.8-1.6-4-1.9-.2-.2 2.7-9.2 6.4-20 6.7-19.1 7-19.5 9.4-19 1.4.4 3.6 1.2 5 1.8zm241.6 14.8l1.2 3.7-5.9.4c-6.1.4-9.9 2.6-9.9 5.8 0 2.7 2.3 4 9 5.1 7.9 1.2 11.6 3.1 13.5 6.9 4.2 8.2-.2 15.6-11.5 19.1-9.7 2.9-12 2.4-13.5-2.8l-1.3-4.2 4.8.6c8.1.9 15.1-2.7 13.4-7-.7-1.9-4.5-3.4-10.9-4.2-9.2-1.3-13.5-5.4-13.5-12.9 0-4.9 4.7-10 10.8-12 10.6-3.4 12.1-3.2 13.8 1.5zm-186.1 2.3c10 2.3 10 2.3 9.7 5.2-.2 1.6-.7 3.3-1.1 3.7-.4.4-3.6.1-7.2-.7-3.5-.9-6.7-1.2-7.1-.8-.4.4-1 2.6-1.4 4.8l-.6 4.1 6.7 1.3 6.7 1.3-.7 3.6c-.4 2-.8 3.7-.9 3.8-.1.1-2.9-.4-6.1-1.2-3.3-.8-6.3-1.4-6.7-1.5-.7 0-2.8 6.4-2.8 8.6 0 .7 3.4 2 7.5 2.9 7.8 1.7 8.2 2.2 6.9 7.1l-.5 2L349 828c-6.5-1.4-12.1-2.8-12.4-3-.4-.4 4.9-26.3 7.9-38.8.7-2.7 1.4-2.7 14 .2zm31.2 6.2c2.6.5 3.2 1.4 5.7 8.5 1.6 4.3 2.9 7.9 3 7.9.2 0 2.4-3.4 5-7.5l4.7-7.4 4.7.6c2.6.3 4.8.7 5 .8.2.2-2.8 4.6-6.7 9.8l-7 9.6 5.4 11.3c2.9 6.2 5.3 11.3 5.2 11.4-.1 0-2.5-.2-5.4-.4l-5.2-.4-3-7.3c-1.7-4.1-3.1-7.8-3.1-8.4 0-2.5-1.8-.6-5.9 6.4-4.8 8-5.5 8.4-12.9 6.9l-3-.6 7.4-9.6c4.1-5.2 7.4-9.9 7.4-10.3 0-.4-2.2-5.5-5-11.3l-4.9-10.6h2.8c1.6 0 4.2.3 5.8.6zm71.3 5.8c0 3-.4 3.4-3.1 4-1.7.3-4.4.6-5.9.6h-2.8l.6 17.5.5 17.5h-9l-.6-10.7c-.4-5.8-.7-13.7-.7-17.5V803h-5.9c-6.1 0-7.1-.7-7.1-5 0-2.1 2.7-2.4 23.3-2.8l10.7-.2v3.4z"/><path d="M784.6 551.9c.5.4 4.1 2.9 7.9 5.5l7 4.6 1.2-3.7c2.3-7.4 2.4-7.3-7.9-7.3-5.3 0-8.8.4-8.2.9zM617 757.8c0 1.2 2.8 13.9 3.5 15.9.3.9 1.8.5 5-1.4 2.5-1.6 4.4-3 4.3-3.3-.8-1.6-12.8-12.1-12.8-11.2zM576.3 775.1c-1.8.5-3.4 1.3-3.7 1.8-.8 1.2 4.3 12.1 5.5 12.1.6 0 2.3-.7 3.8-1.5 4.8-2.4 5.5-7.2 1.6-11-2.6-2.7-2.6-2.7-7.2-1.4zM290.5 99.1c-9.3.9-14.6 2.4-22.5 6.4-12.9 6.5-19.4 14.4-31.7 38.5-21.6 42.3-36.2 99.3-41.8 163-8.8 100.9 8.4 198.9 38.9 220.8 21.3 15.3 57.3 17.4 103.3 6.2 25.1-6.2 35.9-10.3 51.5-19.7 24.3-14.5 50.6-33.4 75.5-54.1 14.4-12 71-67.6 95.8-94.2 34.5-37 39.1-44.5 35-56.9-3.9-11.9-33.5-47.3-72.3-86.5-54.1-54.6-94.3-83.9-141.7-103.2-39.6-16.1-68.2-22.6-90-20.3zm8.2 73.4l3.7 1.6-12.2 8.1c-6.7 4.4-11.9 8.5-11.6 9 .3.4 6.1-3 13-7.7 11.2-7.7 15.5-9.9 15.4-7.8 0 .5-5.3 4.4-11.7 8.7-6.4 4.4-11.2 8.1-10.6 8.3 1.1.4 20.8-12.8 22.8-15.2.6-.7 1.8-.9 2.9-.5 1.6.5-.4 2.3-10.4 9.5-11.8 8.4-12.2 8.8-9.9 10 2.1 1.2 3 .8 9.3-3.9 3.9-2.9 7.6-5.5 8.2-5.9.7-.4 3 0 5.2.7 2.9 1.1 4.2 1.2 4.5.3.2-.7 2-.4 5.5 1.1l5.1 2.2 4.6-3.1c3.3-2.3 4.3-3.5 3.6-4.2-.6-.6-1.1-1.5-1.1-1.9 0-1.3 4.9 2.5 5 3.8 0 .6.7 1.7 1.5 2.4.9.7 1.3 1.5 1 1.8-.3.3-1.3-.3-2.4-1.2-1.8-1.6-2-1.6-4 1.3-2.3 3.2-2.3 3.3 3 5 6.1 2 5.9 4.6-1.2 11.7-4.3 4.3-5.7 6.4-4.8 6.9.9.6.8 1.1-.5 2.1-1.6 1.1-1.2 1.5 3 3.3 5 2.3 8.9 2.3 4.2.1-1.6-.7-2.8-1.6-2.8-1.9 0-.4 5.6-6 12.5-12.5l12.6-11.8 6.2 2.3c3.4 1.2 6.4 2.4 6.7 2.6.2.2-5.4 6.2-12.5 13.3-12.7 12.8-12.9 12.9-15.5 11.5-1.5-.8-3-1.1-3.4-.8-.3.4 3.1 2.6 7.6 5 5.1 2.6 8.6 3.9 9.2 3.3.5-.5-.2-1.4-2-2.2-1.6-.6-3.1-1.3-3.3-1.5-.4-.3 3.6-4.8 15.9-18.1l8.7-9.2 3.9 1.4c2.1.8 3.4 1.5 2.8 1.5-2.1.2-24.7 26.2-23.7 27.2.9.9 5.4-3.6 22.5-22.9 3.6-4 3.9-4.2 6.8-3l2.9 1.3-11.4 13.4c-6.3 7.4-11.9 13.9-12.4 14.4-.6.6-2.1.5-4.1-.3-2.3-1-3.4-1-4.3-.1-.6.6-1.8 1.1-2.7 1.1-1 0-1.5 1-1.6 2.9-.1 2.4.5 3.2 2.8 4.2 1.6.6 2.7 1.5 2.6 2-.2.4-7.3 9-15.8 19s-16 18.9-16.6 19.7c-.9 1.3-2.2.6-8.2-4.1-3.9-3.1-7.3-6.1-7.6-6.6-.4-.5 6.9-8.9 16-18.6 12.5-13.2 17.2-17.5 18.6-17.2 3.4.9 1.8-1-2.3-2.9-2.3-1-4.8-2.4-5.5-3.2-.8-.7-1.9-1-2.5-.6-.8.4-.2 1.2 1.5 2.1l2.7 1.4-13 13.7c-7.1 7.5-14.7 15.4-16.9 17.6l-4 3.8-6.1-4.6c-3.4-2.6-6.1-5.1-6.1-5.5 0-.4 6.8-7.2 15-15 17.9-17 18.3-18.1 9.5-22.4-3.9-1.9-6.4-2.5-8.2-2.1-1.9.5-3 .2-4-1.2-1.3-1.7-1.4-1.7-3.1-.1-1.1 1.2-1.3 2-.6 2.5 1.7 1.2 4.3 7.2 3.7 8.8-.8 2.1-3.8 1.7-8.4-1.2-2.3-1.4-4.6-2.3-5.2-2.1-2.4.9-3.2.6-2.9-1.3.2-1.1-.1-2-.5-2-2.1 0-4.4-2.6-3.7-4.3.7-2 3.6-2.2 6.4-.5 1.6 1 2.3.9 4.5-1.2 2.5-2.3 2.5-2.4.5-4.2-1.1-1-2-2.3-2-2.9 0-1.7-4.9-3.4-6.2-2.1-1.5 1.5-2.8 1.5-2.8.2 0-.6-.9-1.9-2-3-2.4-2.4-2.4-2.4-.5 3 1 2.9 1.1 4 .3 3.8-.6-.2-1.9-2.6-2.8-5.3-.9-2.8-2.6-5.5-4.1-6.4-2.2-1.5-2.3-1.4-1.1.1 1.1 1.4-.5 2.9-13.6 12.2-8.3 5.8-15.3 10.6-15.6 10.6-.4 0-2.2-1.2-4.1-2.6l-3.3-2.5 14.1-9.6c17.6-11.8 17.2-11.5 14.7-13.1-1.5-.9-1.8-.9-1.5.1.4 1.1-25.9 19.9-28.7 20.4-.7.2-2.6-.8-4.1-2.1l-2.8-2.3 8.3-5.3c4.6-2.9 11.4-7.3 15.2-9.7 4.8-3.2 7.1-4.2 7.9-3.4.6.6.9 1.2.6 1.4-.2.2-6.4 4.3-13.7 9.2-7.3 4.8-13.1 9-12.8 9.2.7.8 27.6-17.2 27.6-18.4 0-.7 1.2-1.6 2.6-1.9 1.8-.5 2.2-1 1.5-1.7-.8-.8 2.3-3.3 10.7-8.8 6.4-4.3 11.8-7.8 12-7.8.1-.1 1.9.6 3.9 1.4zM424 327.1c0 .3 1.4.9 3.2 1.3 3.1.6 3.1.6 1.2 2.7-1.1 1.3-1.7 3.2-1.6 5 .3 2.8.3 2.9-2.2 1.8-2-.9-3.2-.9-5.1-.1-2.3 1.1-2.5 1-2.5-1.7 0-1.6-.7-3.4-1.5-4.1-2.1-1.8-1.9-2.7 1-3.4 1.4-.4 3.1-1.8 3.7-3.2 1.1-2.4 1.3-2.5 2.5-.8.7 1 1.3 2.1 1.3 2.5zm-209 57c-2.8 5.5-7.3 15.4-10 22.1-4.3 10.7-5 11.8-5.6 9.3-.9-3.5 3.2-13.8 13-32.9 5.8-11.3 7.2-13.4 7.4-11.2.2 1.7-1.4 6.2-4.8 12.7z"/><path d="M285.5 180.6c-6 4.1-10.6 7.4-10 7.4 1 0 22.5-14 22.5-14.6 0-1-2.4.3-12.5 7.2zM308.6 196.1c-3.6 2.8-6.6 5.5-6.6 5.9 0 .6 4.4 3 5.5 3 .3 0 .5-.7.5-1.5 0-1.8.1-1.8 3.3-.6 2.2.8 3.1.4 6.6-3 2.3-2.1 4.8-3.9 5.6-3.9 2.8 0 1.5-1.8-2.5-3.4-2.2-.9-4.4-1.6-4.9-1.6s-3.8 2.3-7.5 5.1zM328 197.5c0 2.2.2 2.4 1.9 1.3 1.5-.9 1.7-1.5.9-2.5-1.6-2-2.8-1.5-2.8 1.2zM354.7 207.3c-6.4 6.2-11.7 11.5-11.7 11.9 0 2.5 3.8-.5 14.5-11.2 6.6-6.6 11.3-12 10.5-12-.8.1-6.8 5.1-13.3 11.3zM261.7 206.5c-7.5 5.3-13.7 10.1-13.7 10.6 0 .6 2.1-.5 4.8-2.4 2.6-1.8 8.8-6.2 13.7-9.7 10.2-7 11.3-8 9.9-8-.5 0-7.1 4.3-14.7 9.5zM319 206c0 .5.4 1 .9 1 .6 0 1.3-.5 1.6-1 .3-.6-.1-1-.9-1-.9 0-1.6.4-1.6 1zM319 244.5c-8.5 8.5-15.1 15.8-14.7 16.2 1 .9 31.1-29.1 30.6-30.6-.2-.6-7.4 5.8-15.9 14.4zM337.1 256.4c-8 8.9-14.6 16.7-14.8 17.3-.2.6.2 1.3.9 1.6 2 .7 28.8-29.9 28.8-32.9 0-1.3-.1-2.4-.2-2.3-.2 0-6.8 7.3-14.7 16.3zM187.2 283.9l-3.3 4.8 2.4 5.4 2.4 5.4 1.2-9.8c.7-5.4 1.1-10 .9-10.2-.2-.2-1.8 1.8-3.6 4.4z"/></svg>